<svg xmlns="http://www.w3.org/2000/svg" xmlns:xlink="http://www.w3.org/1999/xlink" width="2000" zoomAndPan="magnify" viewBox="0 0 1500 1499.999933" height="2000" preserveAspectRatio="xMidYMid meet" version="1.0"><path fill="#4ca626" d="M 1460.089844 1418.910156 L 1046.855469 587.753906 C 925.1875 696.578125 818.117188 887.511719 824.089844 1043.957031 L 949.117188 1290.519531 C 953.609375 1299.375 961.265625 1306.203125 970.570312 1309.660156 L 1410.972656 1473.492188 C 1444.515625 1485.976562 1476.03125 1450.957031 1460.089844 1418.910156 Z M 718.519531 964.699219 C 717.457031 966.257812 716.476562 967.917969 715.605469 969.699219 L 558.722656 1287.652344 C 554.265625 1296.683594 546.523438 1303.679688 537.082031 1307.199219 L 88.566406 1474.035156 C 55.214844 1486.460938 23.761719 1451.875 39.253906 1419.847656 L 705.027344 43.242188 C 719.316406 13.707031 761.324219 13.464844 775.9375 42.847656 L 1032.726562 559.367188 C 891.921875 660.011719 781.660156 800.671875 718.519531 964.699219 " fill-opacity="1" fill-rule="nonzero"/></svg>